<svg xmlns="http://www.w3.org/2000/svg" viewBox="0 0 400 480" fill="none">
  <rect width="400" height="480" rx="24" fill="#0d0d0d"/>
  <rect x="130" y="60" width="140" height="120" rx="24" fill="#161616" stroke="#333" stroke-width="2"/>
  <circle cx="170" cy="110" r="12" fill="#f5f5f5"/><circle cx="230" cy="110" r="12" fill="#f5f5f5"/>
  <circle cx="170" cy="110" r="5" fill="#0a0a0a"/><circle cx="230" cy="110" r="5" fill="#0a0a0a"/>
  <rect x="175" y="140" width="50" height="8" rx="4" fill="#333"/>
  <line x1="200" y1="60" x2="200" y2="36" stroke="#444" stroke-width="3"/>
  <circle cx="200" cy="30" r="8" fill="#fff"/>
  <rect x="120" y="200" width="160" height="160" rx="20" fill="#141414" stroke="#2a2a2a" stroke-width="2"/>
  <text x="200" y="270" text-anchor="middle" font-family="system-ui" font-weight="600" font-size="20" fill="#e8e8e8">JagX AI</text>
  <text x="200" y="295" text-anchor="middle" font-family="system-ui" font-size="11" fill="#666">Multi-agent · Review · Tools</text>
  <rect x="145" y="320" width="110" height="10" rx="5" fill="#222"/>
  <rect x="145" y="320" width="70" height="10" rx="5" fill="#888"/>
  <rect x="60" y="220" width="50" height="20" rx="10" fill="#1a1a1a" stroke="#333"/>
  <rect x="290" y="220" width="50" height="20" rx="10" fill="#1a1a1a" stroke="#333"/>
  <rect x="145" y="370" width="40" height="70" rx="12" fill="#161616" stroke="#2a2a2a"/>
  <rect x="215" y="370" width="40" height="70" rx="12" fill="#161616" stroke="#2a2a2a"/>
</svg>
