<svg xmlns="http://www.w3.org/2000/svg" viewBox="0 0 640 360" fill="none">
  <rect width="640" height="360" rx="24" fill="#0c0c0c"/>
  <rect x="40" y="40" width="560" height="280" rx="16" fill="#121212" stroke="#2a2a2a"/>
  <path d="M60 160 L100 120 L540 120 L580 160 L580 200 L60 200 Z" fill="#1a1a1a" stroke="#333"/>
  <rect x="220" y="130" width="200" height="55" rx="6" fill="#0a1520" stroke="#3a5a7a"/>
  <text x="320" y="162" text-anchor="middle" font-family="system-ui" font-size="12" fill="#8ab4d4">JagX OS Cabin</text>
  <circle cx="160" cy="210" r="42" fill="#111" stroke="#555" stroke-width="3"/>
  <circle cx="160" cy="210" r="16" fill="#1a1a1a"/>
  <rect x="148" y="198" width="24" height="14" rx="2" fill="#0a0a0a" stroke="#888"/>
  <text x="160" y="209" text-anchor="middle" font-family="system-ui" font-size="8" fill="#eee">JX</text>
  <rect x="100" y="240" width="90" height="60" rx="8" fill="#1a1a1a" stroke="#333"/>
  <rect x="220" y="240" width="90" height="60" rx="8" fill="#1a1a1a" stroke="#333"/>
  <rect x="360" y="250" width="80" height="50" rx="6" fill="#161616" stroke="#333"/>
  <rect x="460" y="250" width="80" height="50" rx="6" fill="#161616" stroke="#333"/>
  <text x="320" y="30" text-anchor="middle" font-family="system-ui" font-size="16" fill="#e8e8e8">JagX Horizon — Interior</text>
  <text x="320" y="350" text-anchor="middle" font-family="system-ui" font-size="10" fill="#555">Cabin software · JagX OS · Service only through JagX and JRILICENSE</text>
</svg>
